<?xml version="1.0" standalone="no"?>
<!DOCTYPE svg PUBLIC "-//W3C//DTD SVG 20010904//EN"
 "http://www.w3.org/TR/2001/REC-SVG-20010904/DTD/svg10.dtd">
<svg version="1.0" xmlns="http://www.w3.org/2000/svg"
 width="300.000000pt" height="300.000000pt" viewBox="0 0 300.000000 300.000000"
 preserveAspectRatio="xMidYMid meet">
<metadata>
Created by potrace 1.11, written by Peter Selinger 2001-2013
</metadata>
<g transform="translate(0.000000,300.000000) scale(0.100000,-0.100000)"
fill="#000000" stroke="none">
<path d="M2172 2890 c-49 -22 -120 -94 -181 -185 -52 -76 -155 -259 -191 -340
-13 -27 -35 -77 -50 -110 -15 -33 -44 -98 -64 -145 l-37 -85 -71 -35 c-39 -19
-110 -58 -157 -86 -47 -29 -87 -48 -89 -44 -3 9 11 65 51 198 l25 83 -22 14
c-31 20 -92 27 -104 12 -5 -6 -40 -104 -77 -217 l-68 -206 -94 -69 c-98 -72
-323 -286 -409 -389 -190 -226 -319 -459 -376 -677 -15 -59 -21 -116 -22 -194
-1 -99 2 -116 25 -166 33 -71 62 -104 119 -137 64 -38 156 -38 221 0 106 62
198 190 282 393 58 140 190 524 301 880 97 308 87 285 152 331 33 23 97 65
144 94 l85 53 -30 -39 c-16 -21 -32 -41 -36 -44 -18 -14 -143 -217 -187 -305
-109 -217 -162 -375 -198 -595 -13 -75 -12 -323 1 -410 24 -155 105 -388 137
-391 61 -6 125 21 153 65 7 11 16 48 20 81 4 33 8 71 10 85 2 14 7 45 10 70 3
25 10 70 15 100 5 30 12 70 15 88 3 17 7 47 10 65 3 17 10 57 15 87 5 30 12
71 15 90 12 69 94 477 115 570 12 52 23 102 25 110 2 8 9 38 15 65 6 28 13 59
16 70 11 56 37 157 55 212 21 65 77 131 151 178 l33 20 -22 -35 c-130 -211
-173 -348 -130 -413 37 -57 117 -84 183 -61 57 20 162 131 201 214 11 25 11
25 13 -10 6 -95 26 -194 46 -225 18 -28 66 -44 114 -39 19 2 35 6 37 8 2 2 -5
23 -15 47 -35 80 -46 151 -46 279 -1 163 14 241 78 407 64 167 106 244 205
373 85 112 146 175 204 213 26 17 47 34 47 38 0 9 -38 19 -80 19 -83 0 -285
-191 -407 -384 -43 -68 -123 -226 -123 -243 0 -15 -16 -17 -25 -3 -17 27 -143
-6 -289 -75 -42 -21 -79 -35 -81 -33 -10 10 177 377 266 524 67 108 104 152
119 138 20 -19 -64 -222 -157 -382 -31 -53 -25 -61 49 -69 52 -5 56 -4 75 23
51 72 133 252 163 357 25 91 26 148 2 177 -24 30 -123 35 -180 10z m18 -807
c0 -34 -42 -125 -101 -219 -59 -95 -161 -234 -171 -234 -4 0 -11 0 -15 0 -12
0 -10 20 8 85 30 110 114 250 208 348 52 54 71 59 71 20z m-1140 -630 c-72
-259 -211 -653 -323 -914 -82 -191 -126 -257 -192 -289 -41 -20 -45 -20 -75
-5 -115 60 -92 345 52 630 28 57 106 184 118 195 3 3 31 39 62 80 66 87 192
219 296 308 40 34 75 62 77 62 2 0 -5 -30 -15 -67z m466 30 c-4 -16 -8 -38
-11 -51 -2 -13 -6 -31 -9 -40 -3 -9 -8 -30 -10 -47 -3 -16 -17 -84 -31 -150
-14 -65 -28 -133 -31 -150 -2 -16 -11 -61 -19 -100 -7 -38 -16 -86 -19 -105
-11 -71 -57 -346 -62 -370 -2 -14 -7 -47 -10 -75 -3 -27 -7 -52 -9 -54 -4 -3
-28 75 -41 130 -14 56 -13 307 1 394 36 221 108 420 214 593 37 59 45 64 37
25z"/>
<path d="M1388 2593 c-32 -34 -68 -105 -68 -133 0 -32 16 -56 52 -78 34 -21
100 -34 114 -23 5 3 9 29 9 56 0 32 9 66 23 93 l22 42 -48 35 c-57 42 -71 43
-104 8z"/>
</g>
</svg>
